<?xml version="1.0" encoding="UTF-8"?>
<svg version="1.1" xmlns="http://www.w3.org/2000/svg" width="512" height="512">
<path d="M0 0 C0.75410156 0.63035156 1.50820313 1.26070312 2.28515625 1.91015625 C12.84300437 11.05794118 22.33030175 21.5904609 31.35888672 32.22924805 C41.72850545 43.41800804 54.95516203 46.32058314 69.63183594 46.92089844 C103.43922666 48.45712008 103.43922666 48.45712008 134.875 37.6875 C138 36 138 36 141.25 36.0625 C144.85729197 37.29225863 146.31756245 38.63512491 148 42 C148.85105356 69.78081973 128.64052543 97.02776317 110.84375 116.33984375 C108.25777671 119.01304233 105.83651149 121.47738833 102.66821289 123.45678711 C99.06558769 125.73661662 96.40923936 127.42339386 95.3046875 131.67871094 C95.18306491 134.88807957 95.32247574 137.98491729 95.5625 141.1875 C95.64799988 143.53359701 95.72606096 145.87997631 95.796875 148.2265625 C95.84005859 149.3805957 95.88324219 150.53462891 95.92773438 151.72363281 C96.68168718 185.90622271 84.22517137 221.0517296 71 252 C70.62762207 252.88236328 70.25524414 253.76472656 69.87158203 254.67382812 C65.19446735 265.69710426 59.87369695 276.24067214 53.98486328 286.66870117 C53.25178955 287.9735144 53.25178955 287.9735144 52.50390625 289.3046875 C52.06892822 290.06765137 51.6339502 290.83061523 51.18579102 291.61669922 C48.16262356 297.69291101 47.52364951 303.41735288 47.03515625 310.0859375 C46.87304924 312.08984394 46.71093978 314.09375018 46.54882812 316.09765625 C46.30537651 319.22134273 46.06478045 322.34523431 45.82543945 325.46923828 C43.36669301 357.20298733 37.40382623 379.32897176 13 401 C7.89018194 405.31128606 2.49556741 409.19904838 -3 413 C-3.81807129 413.56605957 -4.63614258 414.13211914 -5.47900391 414.71533203 C-59.66715754 451.94872291 -59.66715754 451.94872291 -90.3828125 446.7734375 C-109.5806244 442.6685058 -125.78547388 432.70932624 -141.9375 421.9375 C-142.49973267 421.56267487 -143.06196533 421.18784973 -143.64123535 420.80166626 C-167.67630901 404.71160277 -193.23217604 387.33589346 -200.31030273 357.61376953 C-201.74026815 350.12125695 -202.35380327 342.52588297 -203.0625 334.9375 C-203.22376613 333.27400658 -203.38587183 331.61059433 -203.54882812 329.94726562 C-203.62891113 329.12485886 -203.70899414 328.30245209 -203.79150391 327.4551239 C-203.95385418 325.79580205 -204.11775245 324.13663093 -204.28320312 322.47761536 C-204.69794476 318.28439944 -205.07317568 314.09416455 -205.37695312 309.89135742 C-206.10207964 300.5961895 -207.22319735 293.43147967 -212.375 285.4375 C-213.46953969 283.58371799 -214.55648918 281.72543832 -215.63671875 279.86328125 C-216.19407715 278.91146973 -216.75143555 277.9596582 -217.32568359 276.97900391 C-249.61291989 219.53239304 -263.53820947 151.0002332 -246.66796875 86.7109375 C-243.39989617 75.06324115 -238.66717221 64.45510523 -231 55 C-230.34515625 54.17113281 -229.6903125 53.34226562 -229.015625 52.48828125 C-216.18189807 37.19553729 -198.99443087 30.23520912 -179.83520508 26.58789062 C-175.60193531 25.71979415 -175.60193531 25.71979415 -172.22265625 23.1796875 C-171.83980469 22.41914062 -171.45695312 21.65859375 -171.0625 20.875 C-170.58296875 19.98296875 -170.1034375 19.0909375 -169.609375 18.171875 C-168.81273437 16.60179688 -168.81273437 16.60179688 -168 15 C-158.15046279 -3.99409731 -146.79588168 -17.57485647 -126 -25 C-125.19691406 -25.29777344 -124.39382812 -25.59554688 -123.56640625 -25.90234375 C-83.23489459 -38.8729579 -31.70481005 -26.83495122 0 0 Z M-140 2 C-144.33100807 6.87890669 -147.60159555 12.18245065 -150.6640625 17.91015625 C-151.13344238 18.78776611 -151.60282227 19.66537598 -152.08642578 20.56958008 C-153.00637348 22.31398523 -153.90938794 24.06746126 -154.79248047 25.83081055 C-158.34808053 32.65449405 -162.67772402 37.68187053 -169.52734375 41.35546875 C-172.84155487 42.21936264 -176.18434612 42.77490132 -179.5625 43.3125 C-196.06247899 46.21516937 -209.97673096 54.2415256 -220.0625 67.765625 C-241.97241839 100.79648682 -240.93411521 148.80647434 -233.5 186.0625 C-228.5252508 209.68234521 -220.15172235 232.13625843 -210 254 C-209.67 254 -209.34 254 -209 254 C-208.86047121 247.60406922 -209.05989883 241.26342793 -209.5078125 234.8828125 C-209.5813797 233.81664703 -209.5813797 233.81664703 -209.65643311 232.72894287 C-209.86234427 229.77606278 -210.07185562 226.82359873 -210.29638672 223.87207031 C-210.46063549 221.68875188 -210.61029971 219.50481685 -210.7578125 217.3203125 C-210.8520752 216.03398926 -210.94633789 214.74766602 -211.04345703 213.42236328 C-211.00006467 210.00509327 -210.62166034 207.9829748 -209 205 C-206.53125 203.26171875 -206.53125 203.26171875 -203.5 201.6875 C-196.60285108 197.88991318 -189.43693637 193.65540456 -185 187 C-184.67497998 181.4862804 -185.28968956 176.72064289 -186.49609375 171.30859375 C-186.81063749 169.85353521 -187.12508753 168.39845641 -187.43945312 166.94335938 C-187.9342693 164.70098777 -188.43259063 162.45944848 -188.93383789 160.21850586 C-195.14019557 132.29144247 -195.14019557 132.29144247 -191 121 C-188.75 118.875 -188.75 118.875 -186 118 C-180.47312557 118.34643674 -176.74509992 120.66335892 -172.125 123.4375 C-115.28539408 156.21310191 -42.92822703 163.1872258 20.10205078 147.21386719 C33.27411425 143.66533581 45.76772895 139.02559101 58 133 C58.65935547 132.67918457 59.31871094 132.35836914 59.99804688 132.02783203 C74.7543558 124.7712955 87.19003312 115.37831605 99 104 C99.71671875 103.34644531 100.4334375 102.69289063 101.171875 102.01953125 C113.04419436 90.88329569 122.20984233 75.52011085 127 60 C123.12155132 60.47575209 119.25138928 60.96340095 115.38452148 61.52636719 C105.71909628 62.88573697 96.24714024 63.31182422 86.49145508 63.26074219 C84.06761594 63.25002263 81.64452007 63.26071277 79.22070312 63.2734375 C71.34330883 63.281111 63.56886065 63.01064582 55.73828125 62.1171875 C55.05862808 62.04075012 54.37897491 61.96431274 53.6787262 61.88555908 C32.16685362 59.14732791 17.2920213 42.86961781 3.921875 27.15625 C-3.80414219 18.48803559 -11.93070773 9.91237384 -22 4 C-22.90226318 3.46898682 -22.90226318 3.46898682 -23.82275391 2.92724609 C-33.80811886 -2.86499355 -43.75085315 -7.34202987 -55 -10 C-55.68126953 -10.16226074 -56.36253906 -10.32452148 -57.06445312 -10.49169922 C-82.76160079 -16.2610542 -119.79644403 -17.86047671 -140 2 Z M-177 140 C-176.79318604 140.99741211 -176.58637207 141.99482422 -176.37329102 143.02246094 C-175.59647687 146.77834346 -174.82904404 150.53609507 -174.06420898 154.29443359 C-173.73402136 155.91050519 -173.40140384 157.52608255 -173.06616211 159.14111328 C-167.1893882 187.4796374 -167.1893882 187.4796374 -172 196 C-175.47172295 200.91102495 -179.33331042 205.14388582 -184.5625 208.17871094 C-191.80268087 212.27171233 -191.80268087 212.27171233 -196.02807617 219.06860352 C-196.11630079 222.89565931 -195.72268629 226.53647852 -195.1875 230.3125 C-195.03164042 231.81568046 -194.88415137 233.31974622 -194.74389648 234.82446289 C-194.49841353 237.41351293 -194.24334236 239.99998312 -193.96162415 242.58537292 C-193.01511163 251.27430935 -192.3925668 259.9766797 -191.8046875 268.6953125 C-191.70236647 270.19905709 -191.5999539 271.70279545 -191.49745178 273.20652771 C-191.34164834 275.49507169 -191.18599398 277.7836253 -191.03080845 280.07221127 C-189.74407033 299.02543012 -188.3874426 317.9720926 -186.52734375 336.87890625 C-186.3653524 338.60596046 -186.3653524 338.60596046 -186.2000885 340.36790466 C-184.00236384 361.72896221 -175.44739818 375.2236587 -159.375 389 C-121.39414197 419.84586584 -121.39414197 419.84586584 -75.35546875 431.41015625 C-47.64646116 428.02314135 -18.60660737 405.61965614 2 388 C2.99773437 387.14792969 3.99546875 386.29585937 5.0234375 385.41796875 C11.32370422 379.91569689 16.80986964 374.31306934 21 367 C21.47050781 366.19175781 21.94101562 365.38351562 22.42578125 364.55078125 C25.71967053 357.89498729 26.66552648 351.3166691 27.51953125 344.0078125 C27.71042076 342.42190308 27.71042076 342.42190308 27.90516663 340.80395508 C29.83933854 324.32148651 30.97514192 307.77205124 32.15672302 291.22221375 C32.68509964 283.92601186 33.28545079 276.63991674 33.94318295 269.35453606 C34.46969107 263.50195468 34.95451058 257.64675973 35.41286564 251.78845406 C35.69524745 248.20375382 35.9978615 244.62334135 36.34909058 241.04467773 C36.742438 237.02937625 37.04412038 233.01195148 37.33984375 228.98828125 C37.53719116 227.19309807 37.53719116 227.19309807 37.73852539 225.36164856 C37.94885096 221.9118338 37.98102859 219.31830786 37 216 C33.73841259 212.55702986 30.06739564 210.37843645 26 208 C19.20833575 202.61593761 13.8458765 197.39533568 11 189 C10.78692705 183.39499757 11.2397846 178.04751779 12 172.5 C12.09539062 171.77296875 12.19078125 171.0459375 12.2890625 170.296875 C12.52146167 168.53064133 12.76006638 166.76522594 13 165 C12.26998779 165.11593506 11.53997559 165.23187012 10.7878418 165.35131836 C7.42163519 165.88374895 4.05458474 166.41065241 0.6875 166.9375 C-0.46041016 167.11990234 -1.60832031 167.30230469 -2.79101562 167.49023438 C-16.42846524 169.61504947 -29.72010613 170.24077954 -43.5 170.25 C-44.86159744 170.25101212 -44.86159744 170.25101212 -46.2507019 170.25204468 C-89.5245395 170.20114939 -131.5233265 161.06790472 -170.51000977 142.08203125 C-173.61102573 140.49736914 -173.61102573 140.49736914 -177 140 Z M72.22167969 143.15014648 C62.61387842 148.3972359 52.89421146 152.58029053 42.609375 156.30859375 C41.8251416 156.59758545 41.0409082 156.88657715 40.23291016 157.18432617 C38.79676219 157.70894572 37.35396101 158.21587303 35.90380859 158.70043945 C32.79360096 159.83262552 31.26022401 160.5037045 29.6953125 163.48828125 C29.50710938 164.42027344 29.31890625 165.35226563 29.125 166.3125 C28.91488281 167.29605469 28.70476562 168.27960938 28.48828125 169.29296875 C28.32714844 170.18628906 28.16601562 171.07960937 28 172 C27.773125 173.03125 27.54625 174.0625 27.3125 175.125 C26.2858286 182.9279904 26.2858286 182.9279904 28.875 190.125 C34.63663621 196.00056687 42.0256062 200.21880952 49.28515625 203.95703125 C51 205 51 205 52 207 C52.101145 209.71901551 52.14073687 212.40617453 52.125 215.125 C52.12306641 215.9296167 52.12113281 216.7342334 52.11914062 217.56323242 C52.07269236 224.13630666 51.68941951 230.65262329 51.22265625 237.20703125 C50.89391576 242.80715434 50.91358697 248.39275424 51 254 C53.51757857 250.93198638 54.99528862 247.94110707 56.453125 244.2578125 C57.12964111 242.55177856 57.12964111 242.55177856 57.81982422 240.8112793 C58.29178223 239.59480713 58.76374023 238.37833496 59.25 237.125 C59.49333069 236.49985504 59.73666138 235.87471008 59.98736572 235.23062134 C67.38992161 216.16704998 73.22157279 197.11778292 77 177 C77.19916016 175.95537598 77.19916016 175.95537598 77.40234375 174.88964844 C79.51985987 163.33253096 79.2084879 151.70258634 79 140 C76.5733411 140 74.32140405 141.99584182 72.22167969 143.15014648 Z " fill="#000000" transform="translate(309,47)"/>
<path d="M0 0 C1.11375 0.29390625 2.2275 0.5878125 3.375 0.890625 C15.09197744 4.39525664 25.86081763 10.09309102 36.81201172 15.45117188 C49.87747922 21.79879983 62.96138719 28.11529949 77 32 C78.13566406 32.31710938 79.27132812 32.63421875 80.44140625 32.9609375 C99.52350323 37.52723513 119.46876159 35.77048397 138 29.8125 C142.97285532 28.21650306 146.80118487 27.24380871 152 28 C154.5 29.5625 154.5 29.5625 156 32 C156.5625 35.4375 156.5625 35.4375 156 39 C152.00032946 44.20924832 147.51651119 45.52881616 141.4375 47.1875 C140.53854004 47.44233154 139.63958008 47.69716309 138.71337891 47.9597168 C132.18615218 49.76943717 125.75158177 51.32484182 119 52 C118.04722168 52.09837158 118.04722168 52.09837158 117.07519531 52.19873047 C84.09252064 55.39877126 55.8304416 44.63447802 26.875 29.875 C2.67318756 17.57590845 -21.95052856 9.2260261 -48.93994141 17.60205078 C-59.74612094 21.32495392 -70.4852204 26.6568136 -80 33 C-84.40184998 33.57061018 -86.29837208 33.50756062 -89.9375 30.875 C-92 28 -92 28 -92.625 25 C-91.59635984 20.06252722 -88.08829591 17.72553061 -84.01171875 15.0078125 C-57.7634653 0.14099915 -30.04420131 -8.18167982 0 0 Z " fill="#000000" transform="translate(234,99)"/>
</svg>
